<?xml version="1.0" encoding="UTF-8" standalone="no"?>
<!-- Created with Inkscape (http://www.inkscape.org/) -->

<svg
   xmlns:dc="http://purl.org/dc/elements/1.1/"
   xmlns:cc="http://creativecommons.org/ns#"
   xmlns:rdf="http://www.w3.org/1999/02/22-rdf-syntax-ns#"
   xmlns:svg="http://www.w3.org/2000/svg"
   xmlns="http://www.w3.org/2000/svg"
   xmlns:sodipodi="http://sodipodi.sourceforge.net/DTD/sodipodi-0.dtd"
   xmlns:inkscape="http://www.inkscape.org/namespaces/inkscape"
   width="128"
   height="128"
   viewBox="0 0 128 128"
   id="svg2"
   version="1.1"
   inkscape:version="0.91 r13725"
   sodipodi:docname="icon-email.svg">
  <defs
     id="defs4">
    <clipPath
       id="clipPath42"
       clipPathUnits="userSpaceOnUse">
      <path
         inkscape:connector-curvature="0"
         id="path44"
         d="M 0,500 1024,500 1024,0 0,0 0,500 Z" />
    </clipPath>
    <clipPath
       id="clipPath54"
       clipPathUnits="userSpaceOnUse">
      <path
         inkscape:connector-curvature="0"
         id="path56"
         d="M 0,500 1024,500 1024,0 0,0 0,500 Z" />
    </clipPath>
  </defs>
  <sodipodi:namedview
     id="base"
     pagecolor="#ffffff"
     bordercolor="#666666"
     borderopacity="1.0"
     inkscape:pageopacity="0.0"
     inkscape:pageshadow="2"
     inkscape:zoom="0.5"
     inkscape:cx="70.172883"
     inkscape:cy="-211.91256"
     inkscape:document-units="px"
     inkscape:current-layer="layer1"
     showgrid="false"
     showguides="true"
     inkscape:guide-bbox="true"
     inkscape:window-width="1130"
     inkscape:window-height="695"
     inkscape:window-x="0"
     inkscape:window-y="1"
     inkscape:window-maximized="0"
     units="px"
     fit-margin-top="0"
     fit-margin-left="0"
     fit-margin-right="0"
     fit-margin-bottom="0" />
  <metadata
     id="metadata7">
    <rdf:RDF>
      <cc:Work
         rdf:about="">
        <dc:format>image/svg+xml</dc:format>
        <dc:type
           rdf:resource="http://purl.org/dc/dcmitype/StillImage" />
        <dc:title></dc:title>
      </cc:Work>
    </rdf:RDF>
  </metadata>
  <g
     inkscape:label="Layer 1"
     inkscape:groupmode="layer"
     id="layer1"
     transform="translate(-400,-52.362267)">
    <g
       id="g7342">
      <g
         transform="matrix(0.32,0,0,0.32,47.999997,35.60636)"
         id="g6681">
        <path
           id="path6654"
           d="m 1180,52.36221 c -44.32,0 -80,35.679995 -80,79.99999 l 0,240 c 0,44.32 35.68,80 80,80 l 240,0 c 44.32,0 80,-35.68 80,-80 l 0,-240 c 0,-44.319995 -35.68,-79.99999 -80,-79.99999 l -240,0 z"
           style="opacity:0.62999998;fill:#606060;fill-opacity:1;fill-rule:evenodd;stroke:none;stroke-width:0.875;stroke-linecap:square;stroke-linejoin:miter;stroke-miterlimit:4;stroke-dasharray:0.875, 1.75;stroke-dashoffset:0;stroke-opacity:1"
           inkscape:connector-curvature="0" />
        <path
           inkscape:connector-curvature="0"
           style="opacity:1;fill:#ffffff;fill-opacity:1;stroke:none;stroke-width:1.10000002;stroke-linecap:square;stroke-linejoin:miter;stroke-miterlimit:4;stroke-dasharray:none;stroke-opacity:1"
           d="m 1160,152.36133 0,1.57812 116.0684,106.88477 c 13.2802,12.22908 34.3174,12.23135 47.5976,0.002 L 1440,153.69727 l 0,-1.33594 -280,0 z"
           id="path6675" />
        <path
           inkscape:connector-curvature="0"
           style="opacity:1;fill:#ffffff;fill-opacity:1;stroke:none;stroke-width:1.10000002;stroke-linecap:square;stroke-linejoin:miter;stroke-miterlimit:4;stroke-dasharray:none;stroke-opacity:1"
           d="m 1440,174.05273 -86.4805,79.63672 86.4805,86.48047 0,-166.11719 z m -280,0.2461 0,167.68945 87.2988,-87.29883 L 1160,174.29883 Z m 182.4766,89.56055 -7.7598,7.14453 c -19.2124,17.69247 -50.4908,17.69213 -69.7031,0 l -6.6719,-6.14258 -87.5,87.5 260.1348,0 -88.5,-88.50195 z"
           id="rect6662" />
      </g>
    </g>
  </g>
  <style
     id="style4192"
     type="text/css">
	.st0{fill:#1DA1F2;}
	.st1{fill:#FFFFFF;}
</style>
</svg>
