<?xml version="1.0" encoding="UTF-8" standalone="no"?>
<!-- Created with Inkscape (http://www.inkscape.org/) -->

<svg
   version="1.1"
   id="svg1"
   width="701.71503"
   height="700.12152"
   viewBox="0 0 701.71503 700.12152"
   sodipodi:docname="quaggy-logo-bw.svg"
   inkscape:version="1.3 (0e150ed6c4, 2023-07-21)"
   inkscape:export-filename="quaggy-logo-bw2.svg"
   inkscape:export-xdpi="96"
   inkscape:export-ydpi="96"
   xmlns:inkscape="http://www.inkscape.org/namespaces/inkscape"
   xmlns:sodipodi="http://sodipodi.sourceforge.net/DTD/sodipodi-0.dtd"
   xmlns="http://www.w3.org/2000/svg"
   xmlns:svg="http://www.w3.org/2000/svg">
  <defs
     id="defs1" />
  <sodipodi:namedview
     id="namedview1"
     pagecolor="#ffffff"
     bordercolor="#000000"
     borderopacity="0.25"
     inkscape:showpageshadow="2"
     inkscape:pageopacity="0.0"
     inkscape:pagecheckerboard="0"
     inkscape:deskcolor="#d1d1d1"
     inkscape:zoom="1.0288945"
     inkscape:cx="355.72161"
     inkscape:cy="362.03907"
     inkscape:window-width="1920"
     inkscape:window-height="1048"
     inkscape:window-x="-10"
     inkscape:window-y="-10"
     inkscape:window-maximized="1"
     inkscape:current-layer="g1" />
  <g
     inkscape:groupmode="layer"
     inkscape:label="Image"
     id="g1"
     transform="translate(-26.603793,-36.056639)">
    <path
       style="fill:#000000;stroke-width:0.991097"
       d="m 282.08425,734.18194 c -26.99829,-4.09808 -55.29421,-7.57614 -79.96793,-20.28659 -28.64953,-8.45788 -53.77285,-26.69601 -76.5051,-45.56013 C 102.69943,650.08905 83.487407,626.56684 68.084249,601.08392 46.305784,564.7009 31.921247,522.95144 29.754615,480.50516 c -6.01516,-31.35215 -2.290178,-64.07705 1.829637,-95.17052 4.897726,-34.91881 17.023281,-68.61437 30.5,-101.46144 11.25113,-21.88533 23.358096,-44.00732 37.500001,-64.35033 16.810937,-24.09892 36.377957,-46.77589 57.499997,-66.18429 27.85842,-29.33612 65.23703,-50.38137 98.02117,-74.823974 25.62004,-15.232329 55.52474,-18.528564 82.97883,-28.977063 26.11332,-4.200744 51.15337,-12.6644 78.22273,-13.211479 31.50086,-0.814621 63.60105,-0.491288 92.75314,11.41967 34.64948,1.340062 65.5066,19.998963 94.21311,37.644784 25.32831,20.725092 49.91665,40.570452 66.81102,68.283442 18.45488,22.46921 29.34918,50.46075 39.4682,77.64194 11.7352,33.72852 14.70204,69.4511 13.52914,105.6575 1.72543,51.58981 -12.82897,100.79576 -32.99734,148.20229 -14.2297,30.91856 -31.71792,61.05316 -53,87.42231 -11.34326,15.74003 -26.7315,30.90615 -39.50176,45.67742 -37.3259,18.92677 14.87757,26.51855 30.86339,34.37784 13.3917,-0.69759 34.65727,8.98048 7.23863,6.96956 -23.12902,-1.97034 -44.04361,-9.14582 -65.69154,-16.03853 -30.4615,23.34303 -64.48255,42.40266 -98.24986,59.65604 -26.94108,10.46902 -53.27436,19.89686 -81.40111,26.45183 -29.79502,2.90382 -59.4457,8.24777 -90.01732,5.90998 -6.09138,-0.2461 -12.29153,0.36748 -18.24043,-1.4202 z m 52.55887,-84.44426 c 28.09998,-4.76229 56.68049,-8.21113 83.44113,-17.71215 29.38234,-8.57325 54.97838,-25.27034 83.67246,-33.11585 17.21468,17.16372 42.78579,37.20701 67.32754,39.00949 10.27773,-18.60436 -76.57083,-40.63652 -37.57852,-62.37435 34.55436,-26.07071 67.29605,-56.28443 90.57852,-93.31595 17.00908,-25.52273 29.857,-53.27688 39,-82.51094 9.18203,-33.78675 16.18282,-70.14729 9.0318,-105.27864 -4.41225,-40.96796 -27.00115,-78.03669 -57.67077,-105.95802 -25.44015,-24.32453 -56.43768,-39.75526 -88.6482,-53.3952 -22.48107,-6.23984 -45.17366,-14.08242 -68.54519,-17.66786 -35.39018,-4.78057 -72.34557,-2.91329 -108.16764,-1.08609 -24.04179,7.06263 -50.139,9.8315 -72.06465,22.10114 -30.01,11.79148 -55.8074,30.84565 -82.08085,49.11366 -24.65481,19.17738 -48.30208,40.98953 -67.53549,66.28045 4.23068,25.13525 24.43997,-22.71909 37.17692,-28.83863 24.19368,-18.86938 47.07704,-38.23308 73.99542,-53.14948 20.69772,-14.8597 44.58741,-22.83047 67.67629,-33.01867 28.0893,-6.85769 56.04028,-14.83502 85.33236,-15.12142 29.92019,2.40366 60.26028,2.81726 89,11.78728 25.28133,5.90193 49.3184,14.97112 71.5,28.97705 32.107,16.36467 60.20135,44.0544 74.97222,76.69916 13.11072,21.56453 14.03968,47.28843 17.96851,71.56449 0.88879,27.26127 -3.96248,53.77959 -9.33504,79.95019 -15.22944,47.86681 -39.07828,94.11711 -74.84319,130.04457 -17.26194,13.25274 -46.73285,61.04438 -67.20444,34.46753 -14.41395,-15.34389 -28.38856,-32.82709 -43.13632,-48.43919 -10.02033,-12.89285 -44.95594,-41.26527 -28.65924,-6.07101 21.30105,23.1621 40.52984,48.97004 60.2375,74.33899 -5.25983,24.42794 -50.83551,29.62553 -74.12459,41.74661 -24.39717,8.97589 -49.93817,14.0306 -75.37541,17.68092 -24.19308,4.78386 -48.9535,1.49399 -72.5,-4.42023 -27.35531,-6.57735 -54.96486,-16.43275 -77.06847,-34.69487 -19.22284,-17.17345 -35.08495,-36.19944 -44.93153,-60.09449 -13.82779,-31.84026 -15.20996,-68.19448 -8.59576,-102.04995 5.78134,-24.21435 13.96036,-49.51677 26.59576,-71.32127 11.68085,-22.12835 26.60727,-44.70118 44.09322,-62.12877 17.04475,-22.32213 38.17493,-39.94747 59.48112,-57.29219 25.98457,-17.54825 51.84624,-36.04563 80.42566,-49.53002 33.29189,-17.00508 -10.35061,-9.21907 -22.43535,1.47341 -26.81908,13.8741 -51.8251,28.68125 -75.90093,47.14911 -25.94232,16.40178 -46.90069,37.04653 -67.45979,57.54255 -30.9228,33.65357 -53.86676,72.83823 -66.70393,116.3198 -9.687485,33.63724 -10.588195,71.34578 -3,105.73469 11.37072,37.59598 34.2255,73.68761 70.00323,92.68449 23.33884,17.94746 53.04991,28.84386 82.49677,30.9416 25.28704,6.94238 53.37578,4.99983 79.55887,2.97806 z M 323.08425,518.0157 c -11.34366,-21.13841 -13.60041,-46.60172 -17.9292,-70.41957 1.36025,-37.95973 37.46896,-16.27574 60.23719,-15.46319 25.45052,-2.5329 24.29233,31.02753 28.2977,47.96672 -17.53634,10.38553 -14.99934,43.44274 4.31439,42.97712 -2.13742,-19.3764 3.99564,-11.51896 17.74696,-2.69343 -5.33034,-23.32861 -13.65636,-56.68322 -0.66707,-82.30582 13.37178,-13.14343 21.72388,28.38378 38.45245,30.15395 14.85565,14.49089 22.66705,45.29085 43.49999,47.35584 5.98427,-23.25698 19.15199,-50.71282 9.37525,-72.97811 -6.29458,-6.00257 35.8364,6.22186 11.27052,-9.43816 8.32961,-6.71492 23.73301,-12.77758 5.66482,-21.00652 9.10995,-7.85804 -12.09035,-16.79719 8.48536,-25.78268 17.03459,1.88505 27.8857,-9.53131 4.98747,-11.73763 -25.23458,-30.09842 44.65158,-34.39113 27.21695,-57.77085 -4.49029,16.92742 -39.59973,10.29521 -13.64028,-5.10645 4.72159,-15.59881 -10.67954,-8.63982 -16.44355,-15.46183 -10.94966,26.0506 -3.28175,55.87361 -15.16145,81.94439 -2.68588,18.41902 -25.87047,36.56787 -19.94358,4.7698 6.50162,-7.40081 21.65411,-39.42283 4.66869,-20.62773 -3.75545,-16.13584 1.8836,-54.19056 -14.62043,-21.24979 8.43912,23.48118 3.75638,65.66553 -11.28372,76.11195 -21.17064,-26.54308 -25.8835,-63.76215 -53.61432,-85.27184 -26.40493,-11.70847 -56.20376,-11.27533 -82.91414,-20.17739 -23.91907,-11.35156 -46.47122,-15.07658 -71.44113,-5.86241 -21.04396,0.16541 -49.20616,18.99335 -38.55887,41.71538 7.89876,24.37875 31.18531,41.82466 34.5,67.77685 -5.83265,17.89253 -31.03211,39.04498 -16.83849,63.56679 -2.79617,13.34966 -8.4048,42.62305 10.64337,41.50099 2.12524,-24.7144 -10.38919,-57.84377 11.83061,-78.64476 14.47394,1.30865 29.52601,39.25227 27.93238,58.59487 -2.77217,9.0055 22.15797,33.99777 23.93213,17.56351 z m 58.5,-60.8348 c -10.12264,-19.64298 -25.77654,-1.99391 -1.92378,4.28751 l 1.41992,-1.2759 z"
       id="path1" />
  </g>
</svg>
